<?xml version="1.0" encoding="UTF-8"?>
<svg id="Layer_1" data-name="Layer 1" xmlns="http://www.w3.org/2000/svg" viewBox="0 0 1000 1000">
  <defs>
    <style>
      .cls-1 {
        fill: none;
      }

      .cls-2 {
        fill: #042541;
      }

      .cls-3 {
        fill: #003057;
      }

      .cls-4 {
        fill: #d43545;
      }
    </style>
  </defs>
  <g>
    <path class="cls-3" d="M519.14,617.82v-37.92h18.24v36.24c0,12.48,4.2,18.24,14.88,18.24s14.64-6.72,14.64-19.44v-35.04h18.24v68.64h-18.24v-10.92c-3,7.44-10.8,12.36-21.12,12.36-18.36,0-26.64-10.56-26.64-32.16Z"/>
    <path class="cls-3" d="M597.98,579.9h18.24v11.04c3.12-7.56,10.8-12.36,21.24-12.36,18.36,0,26.64,10.56,26.64,32.16v37.8h-18.24v-36.12c0-12.6-4.68-18.36-14.88-18.36s-14.76,6.72-14.76,19.44v35.04h-18.24v-68.64Z"/>
    <path class="cls-4" d="M672.86,614.22c0-24.72,17.52-35.64,35.52-35.64s35.4,10.92,35.4,35.64-17.4,35.88-35.4,35.88-35.52-10.92-35.52-35.88ZM725.66,614.22c0-12.84-7.2-20.52-17.4-20.52s-17.28,7.56-17.28,20.52,7.2,20.64,17.4,20.64,17.28-7.68,17.28-20.64Z"/>
  </g>
  <g>
    <path id="Path_23014" data-name="Path 23014" class="cls-2" d="M436.95,469.49c-.04,7.99,1.55,15.91,4.68,23.26,12.86,30.54,48.03,44.87,78.57,32.01,7.14-3.01,13.63-7.37,19.12-12.85,3.96-3.97,7.31-8.51,9.95-13.46h22.53l-.89,2.34c-3.09,7.17-7.18,13.87-12.14,19.89-22.51,27.49-60.46,36.85-93.17,22.97-39.64-16.64-59.2-61.49-44.41-101.86,14.78-40.37,58.69-61.98,99.69-49.08,7.42,2.35,14.46,5.75,20.92,10.09,6.37,4.33,12.08,9.56,16.97,15.51,4.96,6.03,9.04,12.72,12.14,19.89,3.55,7.95,5.63,16.47,6.14,25.15h-139.83c-.19,1.01-.28,2.04-.28,3.08v3.06ZM552.49,446.96c-4.37-10.96-11.91-20.38-21.65-27.05-20.51-13.85-47.37-13.85-67.88,0-9.74,6.67-17.27,16.09-21.64,27.05h111.17Z"/>
    <path id="Path_1" data-name="Path 1" class="cls-2" d="M246.34,550.32l5.06-.39c9.16,0,18.31-.04,27.46.04,1.55,0,2.41-.51,3.24-1.74,14.67-21.79,29.37-43.56,44.08-65.31,21.5-31.82,42.99-63.64,64.48-95.46.32-.47.65-1.14,1.03-1.76-.48-.02-.96-.02-1.44.02-9.87,0-19.74,0-29.62-.02-1.04,0-1.56.48-2.08,1.26-11.14,16.55-22.3,33.08-33.46,49.6-22.93,33.95-49.66,71.02-72.59,104.96-2.5,3.7-3.38,4.66-6.16,8.8Z"/>
    <path id="Path_2" data-name="Path 2" class="cls-2" d="M354.3,523.55h0c-12.18,0-24.37.02-36.55-.03-1.49,0-1.93.46-1.92,1.93.07,7.57.07,15.12,0,22.67,0,1.53.53,1.89,1.96,1.89,24.42-.03,48.84-.03,73.25,0,1.35,0,1.74-.4,1.73-1.76-.06-7.5-.03-15.01-.03-22.52q0-2.21-2.2-2.22l-36.25.02Z"/>
    <path id="Path_3" data-name="Path 3" class="cls-4" d="M246.04,411.72c.56.04.91.09,1.26.09,24.72,0,49.44.01,74.16.03,1.19,0,1.63-.31,1.62-1.55-.04-7.61-.04-15.21,0-22.82,0-1.31-.34-1.81-1.73-1.8-24.56.03-49.13.03-73.71,0-1.29,0-1.65.45-1.65,1.71.05,7.61.03,15.21.04,22.82v1.52Z"/>
    <path id="Path_4" data-name="Path 4" class="cls-2" d="M392.77,508.19v-23.02c-.74-.04-1.39-.11-2.04-.11-13.5,0-27.01,0-40.52-.03-1.64,0-2.19.32-2.18,1.57.08,6.65.08,13.29,0,19.94,0,1.26.44,1.68,2.22,1.67,13.51-.05,27.01-.03,40.52-.03h1.99Z"/>
    <path class="cls-1" d="M650.29,414.24c-30.54,12.84-44.88,48.01-32.04,78.55,11.99,28.52,43.45,42.91,72.43,34.23,2.05-.61,4.09-1.34,6.11-2.19,14.46-6.08,25.96-17.58,32.04-32.04,3.12-7.35,4.72-15.27,4.68-23.26h0c0-1.5-.04-3-.15-4.48-.46-6.45-1.99-12.8-4.53-18.77-12.84-30.54-48.01-44.88-78.55-32.04Z"/>
    <path class="cls-2" d="M618.25,492.78c-12.84-30.54,1.5-65.7,32.04-78.55,30.54-12.84,65.7,1.5,78.55,32.04,2.54,5.97,4.07,12.31,4.53,18.77h20.63v-126.87h-20.48v81.93c-6.46-9.48-15.35-17.06-25.73-21.94-10.49-5.79-22.25-8.9-34.23-9.08-10.75-.07-21.41,2.07-31.3,6.3-19.32,8.16-34.69,23.53-42.84,42.85-17.28,40.95,1.9,88.15,42.85,105.44,15.9,6.71,32.75,7.92,48.42,4.49v-21.14c-28.98,8.68-60.44-5.71-72.43-34.23Z"/>
    <path class="cls-4" d="M754,465.05h-20.63c.11,1.49.16,2.98.15,4.47h0c.04,8-1.55,15.91-4.68,23.27-6.08,14.46-17.58,25.96-32.04,32.04-2.02.85-4.06,1.58-6.11,2.19v21.14c24.68-5.4,46.44-22.3,57.01-47.34,4.22-9.89,6.37-20.54,6.3-31.3v-4.47Z"/>
  </g>
</svg>